<mxfile host="app.diagrams.net" modified="2024-04-16T06:31:28.963Z" agent="Mozilla/5.0 (Windows NT 10.0; Win64; x64) AppleWebKit/537.36 (KHTML, like Gecko) Chrome/123.0.0.0 Safari/537.36" etag="gqxApmrfgcNjJvRsb2_x" version="24.2.3" type="github">
  <diagram name="페이지-1" id="jbqILOrncthVpkQN2bGO">
    <mxGraphModel dx="1050" dy="522" grid="1" gridSize="10" guides="1" tooltips="1" connect="1" arrows="1" fold="1" page="1" pageScale="1" pageWidth="827" pageHeight="1169" math="0" shadow="0">
      <root>
        <mxCell id="0" />
        <mxCell id="1" parent="0" />
        <mxCell id="PamMQEYHCaWRP1X29mLi-9" style="edgeStyle=orthogonalEdgeStyle;rounded=0;orthogonalLoop=1;jettySize=auto;html=1;exitX=0.5;exitY=1;exitDx=0;exitDy=0;endArrow=none;endFill=0;dashed=1;" edge="1" parent="1" source="PamMQEYHCaWRP1X29mLi-1">
          <mxGeometry relative="1" as="geometry">
            <mxPoint x="145" y="590" as="targetPoint" />
          </mxGeometry>
        </mxCell>
        <mxCell id="PamMQEYHCaWRP1X29mLi-1" value="Customer" style="rounded=0;whiteSpace=wrap;html=1;" vertex="1" parent="1">
          <mxGeometry x="90" y="30" width="110" height="40" as="geometry" />
        </mxCell>
        <mxCell id="PamMQEYHCaWRP1X29mLi-3" value="Delivery" style="rounded=0;whiteSpace=wrap;html=1;" vertex="1" parent="1">
          <mxGeometry x="630" y="30" width="110" height="40" as="geometry" />
        </mxCell>
        <mxCell id="PamMQEYHCaWRP1X29mLi-4" value="Order" style="rounded=0;whiteSpace=wrap;html=1;" vertex="1" parent="1">
          <mxGeometry x="450" y="30" width="110" height="40" as="geometry" />
        </mxCell>
        <mxCell id="PamMQEYHCaWRP1X29mLi-7" value="OrderUI" style="rounded=0;whiteSpace=wrap;html=1;" vertex="1" parent="1">
          <mxGeometry x="270" y="30" width="110" height="40" as="geometry" />
        </mxCell>
        <mxCell id="PamMQEYHCaWRP1X29mLi-10" style="edgeStyle=orthogonalEdgeStyle;rounded=0;orthogonalLoop=1;jettySize=auto;html=1;exitX=0.5;exitY=1;exitDx=0;exitDy=0;endArrow=none;endFill=0;dashed=1;" edge="1" parent="1">
          <mxGeometry relative="1" as="geometry">
            <mxPoint x="324.5" y="590" as="targetPoint" />
            <mxPoint x="324.5" y="70" as="sourcePoint" />
          </mxGeometry>
        </mxCell>
        <mxCell id="PamMQEYHCaWRP1X29mLi-11" style="edgeStyle=orthogonalEdgeStyle;rounded=0;orthogonalLoop=1;jettySize=auto;html=1;exitX=0.5;exitY=1;exitDx=0;exitDy=0;endArrow=none;endFill=0;dashed=1;" edge="1" parent="1">
          <mxGeometry relative="1" as="geometry">
            <mxPoint x="504.5" y="590" as="targetPoint" />
            <mxPoint x="504.5" y="70" as="sourcePoint" />
          </mxGeometry>
        </mxCell>
        <mxCell id="PamMQEYHCaWRP1X29mLi-12" style="edgeStyle=orthogonalEdgeStyle;rounded=0;orthogonalLoop=1;jettySize=auto;html=1;exitX=0.5;exitY=1;exitDx=0;exitDy=0;endArrow=none;endFill=0;dashed=1;" edge="1" parent="1">
          <mxGeometry relative="1" as="geometry">
            <mxPoint x="684.5" y="590" as="targetPoint" />
            <mxPoint x="684.5" y="70" as="sourcePoint" />
          </mxGeometry>
        </mxCell>
      </root>
    </mxGraphModel>
  </diagram>
</mxfile>
